#!OML:ASF F:\VICON\USERDATA\INSTALL\rory3\rory3.ASF
:FULLY-SPECIFIED
:DEGREES
16
root -2.48137 16.5454 42.8845 -164.95 -6.68963 -175.165
lowerback -12.762 0.841608 3.75631
upperback -4.99709 -0.0373632 2.19238
thorax 1.92506 -0.310291 0.151427
lowerneck -16.6422 -2.18278 -8.26445
upperneck 35.271 -5.44533 4.6862
head 15.5494 -3.82259 2.17051
rclavicle 5.51317e-017 2.24627e-014
rhumerus -36.0897 11.6668 -95.5275
rradius 30.9694
rwrist 9.99165
rhand -20.0421 -50.4572
rfingers 7.12502
rthumb 6.29917 -80.3436
lclavicle 5.51317e-017 2.24627e-014
lhumerus -36.0556 -13.1744 94.7243
lradius 32.6645
lwrist 7.21963
lhand -32.0675 -28.8253
lfingers 7.12502
lthumb -5.31394 1.08804
rfemur -32.9982 7.2321 26.7943
rtibia 41.5815
rfoot -19.957 -17.206
rtoes -2.09172
lfemur -33.042 -10.3968 -14.0867
ltibia 43.4546
lfoot -24.467 19.4649
ltoes 5.35262
17
root -2.48801 16.5454 42.8697 -165.095 -6.92571 -175.153
lowerback -12.8764 0.735701 3.85061
upperback -4.86619 -0.187675 2.22037
thorax 2.1198 -0.375632 0.105848
lowerneck -16.7719 -2.16918 -8.29039
upperneck 35.2821 -5.38484 4.67565
head 15.5806 -3.79537 2.18107
rclavicle 6.09787e-015 5.36719e-015
rhumerus -35.9487 11.6856 -95.5157
rradius 30.8612
rwrist 9.96565
rhand -20.1782 -49.387
rfingers 7.12502
rthumb 6.16782 -79.2772
lclavicle 6.09787e-015 5.36719e-015
lhumerus -35.9825 -13.1278 94.7089
lradius 32.6382
lwrist 7.21726
lhand -31.7974 -28.8801
lfingers 7.12502
lthumb -5.05315 1.03965
rfemur -32.7532 7.17157 26.8572
rtibia 41.5585
rfoot -20.0512 -17.4295
rtoes -2.14742
lfemur -32.8476 -10.5002 -14.0786
ltibia 43.4457
lfoot -24.6185 19.256
ltoes 5.78941
18
root -2.49446 16.5451 42.8572 -165.286 -6.98719 -175.226
lowerback -12.6326 0.656009 3.85191
upperback -4.88506 -0.271817 2.21043
thorax 1.96583 -0.417124 0.0832882
lowerneck -16.8156 -2.10607 -8.31276
upperneck 35.4034 -5.30863 4.67234
head 15.6435 -3.7777 2.19587
rclavicle 1.03772e-014 -4.17448e-015
rhumerus -36.0146 11.7553 -95.6242
rradius 31.4346
rwrist 8.45524
rhand -18.8384 -50.5737
rfingers 7.12502
rthumb 7.46115 -80.4221
lclavicle 1.03772e-014 -4.17448e-015
lhumerus -36.1288 -13.0401 94.7205
lradius 32.6211
lwrist 7.17733
lhand -31.472 -28.6963
lfingers 7.12502
lthumb -4.73889 1.23068
rfemur -32.4717 7.23121 26.7846
rtibia 41.557
rfoot -20.3501 -17.4284
rtoes -1.21467
lfemur -32.5451 -10.5916 -14.2022
ltibia 43.3957
lfoot -24.6857 19.2229
ltoes 6.00744
19
root -2.50165 16.5437 42.8527 -165.352 -6.69615 -175.313
lowerback -11.951 0.753818 3.84105
upperback -5.27402 -0.113717 2.11361
thorax 1.19492 -0.366728 0.0127816
lowerneck -16.5029 -2.00496 -8.31498
upperneck 35.6489 -5.33277 4.73618
head 15.6926 -3.82662 2.21677
rclavicle 3.0998e-015 -1.11319e-014
rhumerus -36.6867 11.7129 -95.9145
rradius 31.8108
rwrist 7.77753
rhand -18.7471 -51.4751
rfingers 7.12502
rthumb 7.54926 -81.3204
lclavicle 3.0998e-015 -1.11319e-014
lhumerus -36.7701 -13.0677 94.8235
lradius 32.667
lwrist 7.2073
lhand -31.4426 -28.3971
lfingers 7.12502
lthumb -4.71047 1.53057
rfemur -32.3912 7.23592 26.6345
rtibia 41.5719
rfoot -20.1078 -17.3055
rtoes -1.90181
lfemur -32.35 -10.4428 -14.4193
ltibia 43.3361
lfoot -24.7176 19.2897
ltoes 5.84167
20
root -2.50825 16.5428 42.8345 -165.58 -6.80466 -175.448
lowerback -12.0346 0.692049 3.77674
upperback -5.15596 -0.176891 2.04785
thorax 1.36137 -0.386132 -0.0282444
lowerneck -16.3193 -1.98277 -8.2558
upperneck 35.5544 -5.33481 4.74665
head 15.6004 -3.82018 2.21234
rclavicle -2.61899e-014 -1.63003e-014
rhumerus -36.7261 11.7375 -96.0517
rradius 32.0577
rwrist 7.29962
rhand -18.1677 -53.4862
rfingers 7.12502
rthumb 8.10853 -83.3106
lclavicle -2.61899e-014 -1.63003e-014
lhumerus -36.7798 -13.1456 94.8074
lradius 32.6726
lwrist 7.25849
lhand -31.4969 -28.5234
lfingers 7.12502
lthumb -4.76296 1.40304
rfemur -32.0138 7.20972 26.5291
rtibia 41.5759
rfoot -20.204 -17.4703
rtoes -1.81064
lfemur -31.9747 -10.2971 -14.6609
ltibia 43.2672
lfoot -24.8532 19.1568
ltoes 5.3164
21
root -2.50683 16.544 42.8315 -165.622 -7.23795 -175.508
lowerback -12.0496 0.51321 3.71453
upperback -5.16567 -0.406393 2.06471
thorax 1.35361 -0.498984 -0.00553594
lowerneck -16.2175 -1.92555 -8.13902
upperneck 35.4847 -5.24724 4.65115
head 15.5263 -3.77983 2.16831
rclavicle 2.47922e-014 -2.52457e-014
rhumerus -37.0315 12.1331 -96.392
rradius 30.6222
rwrist 11.2428
rhand -21.9368 -46.0923
rfingers 7.12502
rthumb 4.46976 -76.0252
lclavicle 2.47922e-014 -2.52457e-014
lhumerus -36.8142 -13.0704 94.7734
lradius 32.6745
lwrist 7.20567
lhand -31.2873 -28.7892
lfingers 7.12502
lthumb -4.56054 1.1417
rfemur -31.9031 7.3104 26.5162
rtibia 41.5736
rfoot -20.3204 -17.9197
rtoes -1.38183
lfemur -31.9812 -10.165 -14.6779
ltibia 43.2463
lfoot -24.7815 18.5941
ltoes 5.36741
22
root -2.5091 16.544 42.8176 -165.961 -7.46478 -175.522
lowerback -11.9125 0.376896 3.69799
upperback -5.07189 -0.563362 2.08696
thorax 1.37311 -0.567622 0.00687613
lowerneck -16.1625 -1.8502 -8.02792
upperneck 35.4867 -5.13777 4.54273
head 15.4963 -3.73739 2.12262
rclavicle -6.70898e-015 -1.45113e-014
rhumerus -37.0679 12.0337 -96.3924
rradius 30.8065
rwrist 10.7106
rhand -21.0328 -47.4787
rfingers 7.12502
rthumb 5.34265 -77.3914
lclavicle -6.70898e-015 -1.45113e-014
lhumerus -36.8737 -12.8456 94.7046
lradius 32.6706
lwrist 7.0355
lhand -31.2637 -28.7069
lfingers 7.12502
lthumb -4.5378 1.22451
rfemur -31.4343 7.46513 26.5654
rtibia 41.5516
rfoot -20.7141 -18.1851
rtoes -0.571698
lfemur -31.5665 -10.1443 -14.7325
ltibia 43.2457
lfoot -24.7928 18.3727
ltoes 5.42739
23
root -2.52085 16.5451 42.8297 -165.489 -6.97246 -175.371
lowerback -12.1434 0.619422 3.96837
upperback -5.26833 -0.317037 2.04973
thorax 1.29839 -0.46928 -0.151695
lowerneck -16.0716 -1.81201 -7.9546
upperneck 35.5001 -5.10819 4.48958
head 15.474 -3.72943 2.09253
rclavicle -8.14085e-015 2.90226e-014
rhumerus -37.1647 12.0419 -96.4908
rradius 30.7864
rwrist 10.8524
rhand -21.388 -47.4157
rfingers 7.12502
rthumb 4.99967 -77.3368
lclavicle -8.14085e-015 2.90226e-014
lhumerus -36.8949 -12.6555 94.6112
lradius 32.5974
lwrist 6.85429
lhand -31.174 -28.8501
lfingers 7.12502
lthumb -4.45115 1.08308
rfemur -32.0978 7.36004 26.5636
rtibia 41.5428
rfoot -20.2114 -17.7649
rtoes -2.25959
lfemur -32.1013 -10.1321 -14.5885
ltibia 43.2893
lfoot -24.7666 18.8065
ltoes 5.90502
